<svg xmlns="http://www.w3.org/2000/svg" viewBox="0 0 24 24">
  <style id="current-color-scheme" type="text/css">.ColorScheme-Accent{color:#3daee9;}.ColorScheme-Text{color:#3daee9;}</style>
  <g class="ColorScheme-Accent" fill="none"
  stroke="currentColor"
  stroke-width="1.75"
  stroke-linecap="round"
  stroke-linejoin="round">
<path stroke="none" d="M0 0h24v24H0z" fill="none"/>
  <path d="M16 6h3a1 1 0 0 1 1 1v11a2 2 0 0 1 -4 0v-13a1 1 0 0 0 -1 -1h-10a1 1 0 0 0 -1 1v12a3 3 0 0 0 3 3h11" />
  <path d="M8 8l4 0" />
  <path d="M8 12l4 0" />
  <path d="M8 16l4 0" />
  </g>
</svg>
